<?xml version="1.0" encoding="utf-8"?>
<svg xmlns="http://www.w3.org/2000/svg" version="1.1" viewBox="0 0 800 450">
  <!-- <g>
    <rect width='800' height='450' style="fill:rgb(255,255,255);stroke-width:1;stroke:rgb(0,0,0)" />
  </g> -->
  <g id="states" transform="translate(-50, -30) scale(1)">
    <path
      d="M716.1005235621622,175.517196748199L733.1311114838193,171.87153559254807L734.8462541500576,181.36847966249184L724.6021357721652,184.6995503387509L717.8298205576136,190.52285281380261Z"
      class="state"
      style="stroke: rgb(105, 105, 105); fill: rgb(255, 255, 255);"></path>
    <path
      d="M699.9239885151,212.8020203566731L703.466753420619,210.88754188526582L702.1434825699343,214.18962084340615L705.9365641294683,220.94327634461638L709.9769436386899,223.99781291552165L711.5362403342386,228.64206946904028L704.6882552475046,230.04830579923055Z"
      class="state"
      style="stroke: rgb(105, 105, 105); fill: rgb(255, 255, 255);"></path>
    <path d="M688.190120718933,226.6534671088075L689.4386387863516,228.36914984531404L688.190120718933,226.6534671088075Z" class="state" style="stroke: rgb(105, 105, 105); fill: rgb(255, 255, 255);"></path>
    <path
      d="M367.9640231769022,422.1887205807727L370.8887660816077,418.77023413755217L379.2375473142045,418.8219635948615L384.3915311097393,424.8947848473082L381.93467985466935,427.6224645060305L370.32788936708664,431.90703490795977ZM338.843954407816,396.47061783188724L342.8436304210716,394.692762385728L345.2869583922553,398.79160485362513L341.1307995165439,400.37349290294577Z"
      class="state"
      style="stroke: rgb(105, 105, 105); fill: rgb(255, 255, 255);"></path>
    <path
      d="M534.7359783364536,225.19049734750172L539.1462872844698,214.91591967241914L537.935263645924,210.51439725376815L545.0901803359721,207.57763445704154L545.9450132750003,199.6127978751706L541.2032564726888,194.82217329205184L570.1950319144291,192.95512510246124L570.0704413784765,195.70824621585723L574.0482560947247,203.69363080358073L576.8765433686916,236.7327555431964L575.9022098152068,239.97784531674915L578.0221378394407,245.29240459565233L573.1466343775402,256.8227358786215L573.4612436122704,259.03766296363807L573.2106813450287,263.74495836377514L564.2219633325386,267.9171008119205L562.2801244407401,271.520409569918L559.5005734244977,270.8021069274133L557.4622597243384,261.88641221702756L547.7941506790683,255.07854331873676L549.7872005623938,246.00762529298424L543.9254320783399,245.33731162689185L542.910050540549,240.71771608559106L535.7993458437459,234.2801397125926Z"
      class="state"
      style="stroke: rgb(105, 105, 105); fill: rgb(122, 181, 173);"></path>
    <path
      d="M574.0482560947247,203.69363080358073L581.2339943083563,202.31218037631743L601.9839261271368,200.07899526604967L602.0910910914536,200.98425987368296L606.1329308394148,237.27018418967828L606.7410888002927,240.26461962770645L596.7416706454705,250.07743679716236L595.977418456791,253.73267391509683L590.9916021278916,252.7201717007539L583.8162217762587,258.2168818000839L580.3123087900175,256.50198804089575L573.4612436122704,259.03766296363807L573.1466343775402,256.8227358786215L578.0221378394407,245.29240459565233L575.9022098152068,239.97784531674915L576.8765433686916,236.7327555431964Z"
      class="state"
      style="stroke: rgb(105, 105, 105); fill: rgb(80, 150, 147);"></path>
    <path
      d="M481.8803483705034,182.4022356398351L511.3406312963861,182.19156177485797L534.6285885389334,181.20238179722458L536.8398092207104,191.81696314180454L541.2032564726888,194.82217329205184L545.9450132750003,199.6127978751706L545.0901803359721,207.57763445704154L537.935263645924,210.51439725376815L539.1462872844698,214.91591967241914L534.7359783364536,225.19049734750172L531.3717356948254,221.99692183187233L514.0081013133142,223.13424954332072L488.963020509871,223.40915872580672L487.22631263316146,211.0452424841726L481.93206279298886,196.65699398339723L479.9147894960235,193.1047919937688L481.9731699548551,187.8588716118478Z"
      class="state"
      style="stroke: rgb(105, 105, 105); fill: rgb(80, 150, 147);"></path>
    <path
      d="M661.4438217735828,220.3336715094332L681.3527078549641,216.73380938574076L699.9239885151,212.8020203566731L704.6882552475046,230.04830579923055L711.5362403342386,228.64206946904028L710.7248449735781,234.9598341289443L706.652143260232,236.68610810618554L703.903153467749,233.64559172563997L692.0949912208423,235.08124254809047L689.0112389033233,230.73360848888524L689.4386387863516,228.36914984531404L688.190120718933,226.6534671088075L680.8259699303776,222.52403559840252L675.1554342650232,218.24054791038384L668.5511041001839,221.01895633297977L662.5841856874189,227.55213750441283Z"
      class="state"
      style="stroke: rgb(105, 105, 105); fill: rgb(122, 181, 173);"></path>
    <path
      d="M475.0621930590738,105.84233920540987L494.331478910685,105.88120856959529L499.61428191852355,109.69337326134541L514.6316054147488,110.63632604244492L529.4526717687144,117.91635085810947L534.8288972258804,115.04699709729903L542.6644541426721,116.78345787666001L544.8297254518448,119.44231594513656L536.3987727957038,123.45039895135585L524.7168430214753,136.83560619315108L522.1483597111654,137.5411379742825L522.4693228242294,145.75756002063395L517.0586912857068,150.9768415318024L519.3677807960829,154.71962225177833L518.0838663190461,164.4312540974081L527.0399943701573,169.93802351268323L534.2003497447453,177.38197147744575L534.6285885389334,181.20238179722458L511.3406312963861,182.19156177485797L481.8803483705034,182.4022356398351L482.0007252022099,157.30155449879953L478.1223852636019,152.95118152727173L481.0166381964091,148.35159029555564L478.8176607319785,138.4059335494344L478.3711153027143,125.2981531270508L475.68601868541185,117.28955299922688Z"
      class="state"
      style="stroke: rgb(105, 105, 105); fill: rgb(122, 181, 173);"></path>
    <path
      d="M702.5241537495208,213.5872627395173L703.5885832424726,210.86073773007L708.8818608955074,203.75169842896787L703.5449313603986,199.75366483043308L702.790597525212,194.10455176896892L706.1449892156606,187.84146801364136L715.2766959277061,190.92228959998533L715.0121241852428,195.15159130470067L713.9010543694914,196.34975455521817L713.781016452053,196.3778323235681L716.8656183033916,200.86228179829834L717.3280235670913,208.25749313909546L715.9522287069441,213.3718618897011L711.0801243619068,218.54803240783622L703.2887284529792,215.91320861303325L702.7113091582796,213.85798848772822Z"
      class="state"
      style="stroke: rgb(105, 105, 105); fill: rgb(171, 212, 199);"></path>
    <path
      d="M411.8985610294673,102.75621052380109L428.18215127681447,103.98686337570109L455.14555332924874,105.35935300757035L475.0621930590738,105.84233920540987L475.68601868541185,117.28955299922688L478.3711153027143,125.2981531270508L478.8176607319785,138.4059335494344L481.0166381964091,148.35159029555564L449.1898157213475,147.615170511678L429.5948073993908,146.51478734600153L408.31593416791435,144.95549256123718L410.61128074629784,119.22999364206828Z"
      class="state"
      style="stroke: rgb(105, 105, 105); fill: rgb(44, 119, 120);"></path>
    <path
      d="M409.18343629054186,271.10638717385575L419.780743918354,271.9366869765171L446.06507402303964,273.17785865392347L472.1077435421941,273.9592104868787L501.7925786716078,273.9457731741128L501.89477379957077,280.9485675738473L504.10726884067503,296.4397003792594L503.9721053718354,321.17367012443833L494.6013960891325,318.0424950558149L480.68200108048535,319.47520476446107L476.3674441022913,318.0259798205721L472.96847002213843,319.81233334477764L467.3488862764002,316.1832943563272L459.3174772995368,313.682351140768L457.93779232047376,314.9645306174127L449.7184656473105,310.8662175538443L444.24129541817905,310.05864308921093L440.8620936730699,307.3860563487125L442.0101866259513,280.1251710997251L408.6602398993925,278.19214663746016Z"
      class="state"
      style="stroke: rgb(105, 105, 105); fill: rgb(122, 181, 173);"></path>
    <path
      d="M645.3402823143458,190.8853702896539L652.2688527003581,185.50942205014223L652.9227363668388,189.30027243394886L674.448342128032,185.33910515096602L697.4154319420161,180.56041878756866L702.2575754099491,186.12367436228817L706.1449892156606,187.84146801364136L702.790597525212,194.10455176896892L703.5449313603986,199.75366483043308L708.8818608955074,203.75169842896787L703.5885832424726,210.86073773007L703.466753420619,210.88754188526582L699.9239885151,212.8020203566731L681.3527078549641,216.73380938574076L661.4438217735828,220.3336715094332L650.4866530485255,222.19651359992156L648.39721773881,209.48413592655845Z"
      class="state"
      style="stroke: rgb(105, 105, 105); fill: rgb(122, 181, 173);"></path>
    <path
      d="M407.0779370878797,158.16953593349945L408.31593416791435,144.95549256123718L429.5948073993908,146.51478734600153L449.1898157213475,147.615170511678L481.0166381964091,148.35159029555564L478.1223852636019,152.95118152727173L482.0007252022099,157.30155449879953L481.8803483705034,182.4022356398351L481.9731699548551,187.8588716118478L479.9147894960235,193.1047919937688L481.93206279298886,196.65699398339723L473.2403282567086,191.21610891827868L467.38590581591114,191.32052274124806L461.11050160429426,189.15340753386465L429.4306759810105,187.90078960635742L404.82903617756506,186.0271970442252Z"
      class="state"
      style="stroke: rgb(105, 105, 105); fill: rgb(44, 119, 120);"></path>
    <path
      d="M725.2952138893586,130.28757316893484L728.2771682839845,125.32943821092977L736.1701889279639,151.08203473706146L740.1118558436426,154.72534276448278L739.7661882218666,157.54353389406504L735.6618707110988,161.15963990226714L723.9749526894492,163.77313671955972L721.8539251370739,152.00778575718516L722.5317968819304,141.8353008127491L726.4417153279504,137.38097336165856Z"
      class="state"
      style="stroke: rgb(105, 105, 105); fill: rgb(255, 255, 255);"></path>
    <path
      d="M652.2688527003581,185.50942205014223L660.2302765655556,176.80118329298682L656.9477666396797,170.71814413574816L662.3565592430225,167.9806943908776L671.9242896998518,168.10369113636352L677.900442595998,166.4972584908703L684.3266292239687,160.72950973851096L684.1930158271869,156.11405456856335L681.2700653056891,153.6369354389999L689.5919856320272,141.32635676595316L693.3814951338833,138.1045444785192L707.710340610464,134.84511622172556L710.4778340780678,144.7486303459292L709.9863223457858,148.18929975605988L713.534347416319,154.80680276038822L716.0058756417382,165.43959706856708L716.1005235621622,175.517196748199L717.8298205576136,190.52285281380261L722.5067358787177,190.5389501256724L723.6606225468402,194.22326934305772L716.387654611874,197.22348427765792L715.0121241852428,195.15159130470067L715.2766959277061,190.92228959998533L706.1449892156606,187.84146801364136L702.2575754099491,186.12367436228817L697.4154319420161,180.56041878756866L674.448342128032,185.33910515096602L652.9227363668388,189.30027243394886Z"
      class="state"
      style="stroke: rgb(105, 105, 105); fill: rgb(171, 212, 199);"></path>
    <path
      d="M602.0910910914536,200.98425987368296L615.8822709515078,198.74186761110616L621.892640680595,202.32268324743927L628.7441284123689,201.1447242789543L633.8231713401526,199.67420616950483L637.9255249227195,195.1498366619055L645.3402823143458,190.8853702896539L648.39721773881,209.48413592655845L646.28902423001,224.418843592014L641.1772161754707,228.2001699298769L631.2205142753619,243.73181835623507L628.2541489688863,241.79120969511496L613.1623873098611,240.7114236715871L610.2475615188584,236.67339182161982L606.1329308394148,237.27018418967828Z"
      class="state"
      style="stroke: rgb(105, 105, 105); fill: rgb(80, 150, 147);"></path>
    <path
      d="M223.69960364462145,105.50469910727622L229.28035291417228,111.53911416250139L228.5460112090321,115.718576758219L232.84424846120012,118.6227291699314L237.77420860047133,117.60708722170659L244.41110999844824,120.26110492715088L252.88698421255927,121.36611189519579L265.3408660546654,120.58681628952411L284.96059610642,125.30385665179256L288.0531601428805,131.44034154710937L277.2553767709636,145.326531902096L279.03010182172034,149.13801058748925L277.4003653620123,154.2524218806892L271.5606344333305,179.67510378344662L241.7968959058631,172.59335091230184L218.2762432040679,166.0006392704463L200.040909139907,160.72092325343965L199.07021081007844,158.94061571339273L200.1630000356614,148.4768516732288L206.23403002403597,139.66651712980104L215.15743577611664,119.19847315691584L218.28567475574505,108.48757368581926Z"
      class="state"
      style="stroke: rgb(105, 105, 105); fill: rgb(122, 181, 173);"></path>
    <path
      d="M734.8462541500576,181.36847966249184L733.1311114838193,171.87153559254807L737.1724019942208,170.600844545609L739.930487006788,174.3734343775683L738.5633427742587,179.66251205593926Z"
      class="state"
      style="stroke: rgb(105, 105, 105); fill: rgb(255, 255, 255);"></path>
    <path
      d="M524.7168430214753,136.83560619315108L533.508579895994,134.31890456664928L540.1536350031241,138.0650691644172L543.2855745130927,141.08993720582657L562.3895092952407,145.04255395007806L566.5929280348122,148.61845029176345L566.1806806284601,153.19471555653922L569.1296365055293,156.4721517190053L570.9599284708092,169.15572258359566L568.2159266741116,182.46876715959922L570.1950319144291,192.95512510246124L541.2032564726888,194.82217329205184L536.8398092207104,191.81696314180454L534.6285885389334,181.20238179722458L534.2003497447453,177.38197147744575L527.0399943701573,169.93802351268323L518.0838663190461,164.4312540974081L519.3677807960829,154.71962225177833L517.0586912857068,150.9768415318024L522.4693228242294,145.75756002063395L522.1483597111654,137.5411379742825Z"
      class="state"
      style="stroke: rgb(105, 105, 105); fill: rgb(122, 181, 173);"></path>
    <path class="state" style="stroke: rgb(105, 105, 105); fill: rgb(255, 255, 255);"></path>
    <path class="state" style="stroke: rgb(105, 105, 105); fill: rgb(255, 255, 255);"></path>
    <path
      d="M707.710340610464,134.84511622172556L725.2952138893586,130.28757316893484L726.4417153279504,137.38097336165856L722.5317968819304,141.8353008127491L721.8539251370739,152.00778575718516L723.9749526894492,163.77313671955972L716.0058756417382,165.43959706856708L713.534347416319,154.80680276038822L709.9863223457858,148.18929975605988L710.4778340780678,144.7486303459292Z"
      class="state"
      style="stroke: rgb(105, 105, 105); fill: rgb(255, 255, 255);"></path>
    <path
      d="M631.2205142753619,243.73181835623507L641.1772161754707,228.2001699298769L646.28902423001,224.418843592014L648.39721773881,209.48413592655845L650.4866530485255,222.19651359992156L661.4438217735828,220.3336715094332L662.5841856874189,227.55213750441283L668.5511041001839,221.01895633297977L675.1554342650232,218.24054791038384L680.8259699303776,222.52403559840252L673.9137547722985,221.7798261997167L674.0638182897986,225.98543581237652L666.393197817403,238.21847476367736L662.2252365158433,238.74320281373878L655.6232028073265,253.44790490563946L648.5279379812598,258.08288322355247L643.6083030506676,259.25282208727987L639.7257262978221,255.11397954329755L636.1377916837885,253.69189804509801L631.2716098628193,247.7234420958623Z"
      class="state"
      style="stroke: rgb(105, 105, 105); fill: rgb(80, 150, 147);"></path>
    <path class="state" style="stroke: rgb(105, 105, 105); fill: rgb(255, 255, 255);"></path>
    <path class="state" style="stroke: rgb(105, 105, 105); fill: rgb(255, 255, 255);"></path>
    <path class="state" style="stroke: rgb(105, 105, 105); fill: rgb(255, 255, 255);"></path>
    <path
      d="M562.2801244407401,271.520409569918L564.2219633325386,267.9171008119205L573.2106813450287,263.74495836377514L573.4612436122704,259.03766296363807L580.3123087900175,256.50198804089575L583.8162217762587,258.2168818000839L590.9916021278916,252.7201717007539L595.977418456791,253.73267391509683L596.7416706454705,250.07743679716236L606.7410888002927,240.26461962770645L606.1329308394148,237.27018418967828L610.2475615188584,236.67339182161982L613.1623873098611,240.7114236715871L628.2541489688863,241.79120969511496L631.2205142753619,243.73181835623507L631.2716098628193,247.7234420958623L636.1377916837885,253.69189804509801L639.7257262978221,255.11397954329755L632.3940805764389,262.12358418415124L628.6195126576986,267.97464610443524L622.9512349483131,270.778184829191L602.874806760632,272.99689354080397L576.7857611611956,275.2594405508368L574.740360898307,277.36836495017L559.6470306649636,278.5246806850748Z"
      class="state"
      style="stroke: rgb(105, 105, 105); fill: rgb(80, 150, 147);"></path>
    <path
      d="M509.2987029371573,329.7819861798519L542.7393623892954,328.7877110481824L544.799462096866,339.41382408698905L541.491292748607,345.1450589823654L538.5778675508714,357.2054173950853L561.0834299996393,355.84504120870565L560.0996806297148,360.1526047304036L564.5208083446394,367.1272175929404L566.5645370805614,372.03027052178606L563.2885401342764,376.28610036083586L569.1718007749836,378.59973100202245L570.0889245709498,383.36828184075966L559.7955513054948,377.52107193921967L549.4059889738435,383.5687471830926L543.9888835287243,381.43617898858116L539.5389802857738,375.00674007224484L535.3579458184513,373.7823479672707L531.1166521385574,378.08147273284845L520.1863487195782,375.031798990909L512.6794414227259,376.33394962856136L514.2452006385204,370.4594896708972L513.6812641228571,364.63023216159286L516.0687376612102,358.92457303449663L511.4354238653571,346.01483845965606L509.59503660983995,344.1347464176873Z"
      class="state"
      style="stroke: rgb(105, 105, 105); fill: rgb(122, 181, 173);"></path>
    <path
      d="M740.1118558436426,154.72534276448278L736.1701889279639,151.08203473706146L728.2771682839845,125.32943821092977L730.942296389811,122.83822442254166L733.8835451085961,114.526143616799L733.263601690344,103.86982856203838L737.4759671783022,91.64265461014384L741.4345082800712,94.4460556145408L747.0265317262792,90.49131529878446L752.0926808308097,92.92560283994396L757.6424796722729,111.46572566365683L761.5626679135066,111.73111057185417L762.3727758889838,115.9014094821166L766.4764736934255,117.04680547531643L767.7390990182923,123.40470092921043L762.008722287516,126.54713080783245L757.7564821800327,132.25474602125394L751.4951218529968,131.68645413927868L752.232656762297,136.30358468693316L746.7889228044965,142.9082671316704L742.2372892773183,145.02428220783122Z"
      class="state"
      style="stroke: rgb(105, 105, 105); fill: rgb(255, 255, 255);"></path>
    <path
      d="M716.0058756417382,165.43959706856708L723.9749526894492,163.77313671955972L735.6618707110988,161.15963990226714L739.7661882218666,157.54353389406504L742.6057778292883,160.22890190916587L739.721319784391,164.2621781634973L747.2429528772063,171.65702993164552L746.1446827874584,175.00420646140333L741.7728726621402,177.02666786370764L740.2957935018861,174.8001184134846L739.930487006788,174.3734343775683L737.1724019942208,170.600844545609L733.1311114838193,171.87153559254807L716.1005235621622,175.517196748199Z"
      class="state"
      style="stroke: rgb(105, 105, 105); fill: rgb(171, 212, 199);"></path>
    <path
      d="M581.2339943083563,202.31218037631743L585.3556208847059,194.88191833437975L586.1590955011533,188.59497321834021L581.468296653982,175.35814658428387L581.1802481603161,170.11233316311677L582.9261391294642,160.71333158435993L590.5333760934936,152.40221487776978L595.578949853947,144.02787109152814L610.0402737477563,149.49947081670462L610.1840666161341,152.32272119898676L609.9681397106153,152.45301861232645L612.22358493937,162.31534165693017L620.3901224757528,169.13289796733466L624.0883285086842,179.93226635133135L623.6512815041822,185.30752495153433L620.1009364147708,189.38290530682696L615.8822709515078,198.74186761110616L602.0910910914536,200.98425987368296L601.9839261271368,200.07899526604967ZM540.1536350031241,138.0650691644172L549.4786700597496,133.65391337416736L560.6692565317222,124.17883340087849L558.7566509981491,131.05552321298887L566.682578846566,132.70024319720983L569.2700515788762,136.29062079777566L577.4250162044112,136.01709651327292L581.1155717669697,133.2234122295572L591.5212203744386,130.8695930545656L592.195875610322,134.72524400789086L600.7977383407073,133.28099848074805L601.8500075100442,138.91063951427122L599.4974765386683,141.22723657204153L587.9452505509721,140.55755124816187L581.576576013038,143.15795346686104L576.9843541572286,147.75977236445704L573.5823131674989,147.0776533458611L569.1296365055293,156.4721517190053L566.1806806284601,153.19471555653922L566.5929280348122,148.61845029176345L562.3895092952407,145.04255395007806L543.2855745130927,141.08993720582657Z"
      class="state"
      style="stroke: rgb(105, 105, 105); fill: rgb(122, 181, 173);"></path>
    <path
      d="M404.82903617756506,186.0271970442252L429.4306759810105,187.90078960635742L461.11050160429426,189.15340753386465L467.38590581591114,191.32052274124806L473.2403282567086,191.21610891827868L481.93206279298886,196.65699398339723L487.22631263316146,211.0452424841726L488.963020509871,223.40915872580672L493.83547762976133,231.70286174383727L475.29938081013154,231.66776040336777L446.5759846936601,230.83778689276812L422.35233837714657,229.58526078482691L423.24325224433716,215.6183506797638L402.44804685535695,214.0725514221109Z"
      class="state"
      style="stroke: rgb(105, 105, 105); fill: rgb(80, 150, 147);"></path>
    <path
      d="M292.98888258352156,84.42148901535438L285.0587654131406,119.1566421084417L284.96059610642,125.30385665179256L265.3408660546654,120.58681628952411L252.88698421255927,121.36611189519579L244.41110999844824,120.26110492715088L237.77420860047133,117.60708722170659L232.84424846120012,118.6227291699314L228.5460112090321,115.718576758219L229.28035291417228,111.53911416250139L223.69960364462145,105.50469910727622L221.4522647542031,101.16572939150069L220.61794421071215,76.86338919451214L222.9178660869896,74.6580855891151L228.25652063937957,79.41615417984644L235.48394089725087,82.60379178993537L241.77415774864187,83.9002122575605L243.01622603563473,75.14656708729603L241.5666452925084,71.11160855419394L273.60278180627813,79.82965817684294Z"
      class="state"
      style="stroke: rgb(105, 105, 105); fill: rgb(122, 181, 173); stroke-width: 1;"></path>
    <path
      d="M287.44871356857783,404.5804878438098L288.4421563618052,405.3900865688107L289.6880065905167,405.2335212174452L290.89056321405474,406.44969281571065L291.6204870499204,408.4764599965907L289.6585222750856,408.48828769441053ZM287.0075942565853,409.85021703119696L287.5450278750068,408.7062306589793L289.4813046908288,410.0509301830071L290.6869553412806,412.34055417018965L289.35913772903984,412.84386043460455ZM283.9255382790804,407.29607194505877L285.4405467715489,405.635610992008L287.93677637637126,406.1293767310083L288.84031354477685,408.21730041647487L288.3810939725385,408.9410893515588L286.9279996227906,408.33246250196896L287.2089745993055,409.2062507644865L286.5929366008722,409.8570461282616ZM293.80619310353893,415.0325861638024L293.6997955236641,412.9972035261796L294.89136572341675,412.76338356222357L296.9858141475063,414.2258595774121L299.82804734707065,417.05462781104853L300.36471878895196,419.32565287603063L298.32285277098754,419.38312310018534L296.61399814170795,418.609665059162L296.5402731058466,417.00539409321624ZM290.95311123860006,411.3762760246706L291.950854800532,409.74055894367723L294.04730157254806,409.55320790682885L296.11705054474237,411.0236072734308L293.88443821188633,412.53174069657905L292.538038555779,414.8357460581498ZM237.38330923301143,416.49931582534253L239.66508947907002,414.25384750695883L241.75842853037994,413.56843174081035L243.2803124727666,413.75337197385846L243.82517230818686,416.105301340647L240.6325047379437,417.77810036962774L239.54485445736228,419.4744269409043L238.07939283978132,418.23465138245206ZM208.62013263405652,427.525455440555L209.91500309485625,426.3825825294999L212.79389214520262,425.8611323713622L213.24237715370782,427.3825887787642L210.6999909506695,427.78813173885476ZM207.17747021535723,399.1765896307845L209.61912918659084,398.79554982381086L211.4547143815232,399.6002145296841L211.34667257609556,401.51806651423567L209.74514664822834,401.9819392995243L207.79048300179937,400.4540414365782ZM199.2342973463283,432.0440845917924L201.64164333693964,431.39233898143686L201.74489563199555,429.83703609424975L203.05583827889885,429.3081697407207L204.08477816425048,431.1494213728098L202.79502636924224,431.9050859160955L199.81592684771977,432.45306609433715ZM254.98725206634384,353.7503731799522L257.52428578303346,352.563721931999L261.76005456984103,354.2611363044663L262.8408042284109,359.71577602306155L265.2508509162465,371.7590748907483L266.1740354525924,376.41415404129395L268.2582158627522,386.9234556937165L270.6486055468754,398.97679144854385L273.15128368180956,399.0376858397669L273.68687792763296,398.1628164321844L279.8979971585278,402.21562630603205L280.69545236469173,403.6893060215774L282.45941124114603,401.95056501518445L282.8028429297423,399.44195140419566L284.25750148193384,398.2268020007139L286.19097220247505,400.31308452371076L291.23074858995085,403.1211267088147L294.6661535502951,406.7861410435263L296.63894844378524,408.4640936379306L296.73601019853663,409.32544623404686L300.1083231157337,410.57142056435595L303.1024449477387,410.97230170317766L304.87682342681785,414.6692053897498L304.54275166791143,416.6739529054166L303.1679925135386,417.81556327277235L302.12107104248196,416.17323740745485L299.8763394787351,416.29320066578714L297.845836319558,413.8621977496034L296.3565386877961,413.24706473822096L296.55402303140517,410.83949590561315L292.77055077423586,408.22338973361826L290.8171182675267,405.80711183319437L289.4299123726364,404.9065791334451L288.4546628090546,404.9072879350537L286.32607612863046,402.4446068988592L286.5094027894504,403.6047636091977L287.34674868923673,404.97841979568193L286.7906100889603,405.43453704693707L285.7684308622358,404.8094529860806L283.5577470409901,406.0425907651431L280.4754293526169,405.2380617030709L279.49826201121186,404.1349075329347L272.8434141514528,401.5937902189574L269.53945330061146,400.88247356633747L266.5332144669926,400.77634673160094L263.9979950301466,401.7230492621277L259.6085119698604,400.0560609667289L259.32585515197707,399.166168997848L256.63988076257095,397.8116639577372L254.5492813196379,398.66610707878453L254.17112588038452,398.8083894674896L254.1189263885429,398.8487371597764L253.81309775057636,401.99785393904796L252.61374879858568,403.37638012371303L250.84199023895042,403.08568265458996L249.8949733783457,404.3883251597643L246.5621657721309,407.2893698532601L245.1658180541682,407.5551763735535L244.71798078187638,404.56645900273514L245.77533417096524,402.1607687621285L245.6574473286922,399.86774292682395L247.97398909893636,398.2039491122783L247.54878066479657,396.95329605833894L245.408603415568,398.4634568671682L243.64151412704075,400.8168949705403L242.66145957689935,403.87768284463084L240.03329013419776,405.8503810338394L240.9074600919469,409.8356519151259L239.780192983147,410.33567555053065L239.0910729407874,412.171159583929L234.21973911934117,415.9383904563276L233.0153563352475,417.6979507302382L230.09868480031403,419.8615014127645L227.8537991012314,420.40005270039387L227.44685004596164,422.70407624428617L222.9764266351902,423.4119610709598L221.41626971157567,424.78497894406934L218.21024047509368,424.79425431896897L216.4931720717269,426.46634757936204L214.63890938567994,426.68744264382667L215.1138371670769,424.8691638281751L216.79733910711815,423.24050222216783L219.61855393084053,422.11837071218247L220.90608099327312,423.3887679814666L222.3103923012865,420.90817103851265L226.05262775414513,418.6472319112371L229.8537824837842,415.1860239162796L230.64160884312454,410.70444998584793L227.49274677746578,408.6693481277992L224.62690836095294,408.8638549476521L223.65187001165043,407.8520163691096L221.1476195733888,408.51762164910724L219.49545629634085,405.90878645103555L220.49628877964858,404.8899599221924L218.69872785093344,402.2846080827847L216.51600981032226,402.8072519723562L214.86533524626714,401.6338867983895L212.6082842980574,398.403368467303L213.84524930806035,397.2863585686327L212.34340989580627,395.7042704965169L211.50880789077297,392.93351229609664L214.42039881889488,389.2554555802012L215.44982728436972,388.8546552607112L215.70891977914616,387.10918018628263L216.92900654255337,385.87551420659435L218.95672495134914,387.1761845542616L221.6486660240713,385.0789576186336L223.9860235695846,385.52812247529346L224.90981087519785,384.27806790186463L224.20484102796667,381.19132422442374L225.3087451382686,380.13981592091346L224.56654475895314,378.7869801024185L222.40985652437007,379.5634238976488L221.3272543650319,380.8455187785098L219.98276819224355,379.7384904263406L216.39435033206874,379.8614694619471L214.01508274656692,378.7257962803568L213.43519122620123,376.28684367122435L214.38018800555713,375.3213274175267L211.23237977168108,373.1804450878219L216.64792022822198,370.379550171698L219.25220096858675,369.71455794774926L220.545484622387,370.19614021963133L220.1407129020692,372.29995640737457L223.83701948409538,373.18388336649383L224.61847398704143,372.1087664916492L222.96103319907866,368.69168045378495L221.08799435441634,367.44248592158266L220.64923580437352,364.97124495046427L217.10081541096082,360.86025609451156L217.86893850900557,358.13400314680246L221.32108476691536,358.51195549465854L223.34701757818385,356.98516697375845L224.10720741153062,354.6049049518829L226.3168898671526,352.37717429523315L228.623242734693,352.03802495035325L230.26353375421715,350.52692605284426L232.88618986643567,350.57978093465914L235.25188130678515,348.25529650744863L237.75812793092658,349.2184169481135L238.54160462855498,350.7759860506182L240.88472279488144,350.35808754402643L242.39121783450895,350.7414422614695L244.25427948179092,352.8499734595094L247.5485554045836,352.1404156853312L251.00137568609134,353.43080674766406L252.52619676476925,353.15852193175243ZM201.11188633274907,381.2460192077641L201.81453785803512,380.41470866136945L204.94409318341,382.2448734163181L207.01243405412282,384.4384025815036L205.37120198909287,384.635010815092L202.93212852859116,382.06246496169274Z"
      class="state"
      style="stroke: rgb(105, 105, 105); fill: rgb(255, 255, 255); stroke-width: 1;"></path>
    <path
      d="M408.6602398993925,278.19214663746016L442.0101866259513,280.1251710997251L440.8620936730699,307.3860563487125L444.24129541817905,310.05864308921093L449.7184656473105,310.8662175538443L457.93779232047376,314.9645306174127L459.3174772995368,313.682351140768L467.3488862764002,316.1832943563272L472.96847002213843,319.81233334477764L476.3674441022913,318.0259798205721L480.68200108048535,319.47520476446107L494.6013960891325,318.0424950558149L503.9721053718354,321.17367012443833L509.14410661902116,322.2941976076862L509.2987029371573,329.7819861798519L509.59503660983995,344.1347464176873L511.4354238653571,346.01483845965606L516.0687376612102,358.92457303449663L513.6812641228571,364.63023216159286L514.2452006385204,370.4594896708972L512.6794414227259,376.33394962856136L499.9364035328045,381.88202446885737L493.97190953853254,388.06308678866674L474.89904380792007,398.46134703584374L471.41022017817215,399.123228783975L467.9450263979746,416.68071525634053L469.8948778847689,424.79176555011935L465.54730682214984,427.5147093786255L457.9865554643211,426.661784968809L447.5914482895677,421.88204219400245L443.34405724907896,412.44598208611814L442.4497931031393,404.9079399605535L440.4360979236488,404.1300356662402L433.0590553611882,393.08811634165755L428.00319699239117,381.4887696857297L421.1102338481748,374.1720636462775L412.5021552132556,372.8439743988044L405.63908852969104,373.1880758787129L399.0217830317957,383.3870205582574L388.69795999211954,377.7227713734518L383.264385900873,372.7072346468544L379.94064049878966,359.3614953497603L374.3230077817325,354.66763474506456L362.34716291786106,340.5226920555302L361.7198217346829,337.4038263247326L378.77822215644665,339.1836237050169L403.3084079101613,341.2814392078861L406.4455792399845,302.7452589074357Z"
      class="state"
      style="stroke: rgb(105, 105, 105); fill: rgb(122, 181, 173); stroke-width: 1;"></path>
    <path
      d="M542.7393623892954,328.7877110481824L541.5353603000866,321.1470433642139L544.3717960768183,313.1918352537908L548.4256890497999,308.6047161426382L551.0195306563601,300.32952913255707L574.7867726616252,298.64001843570287L576.0985948132045,299.9557531908193L575.5331617102619,322.66883335462205L575.1855962761393,342.3747094315043L577.8537328243377,363.5118575014443L569.9662119085941,364.01609269892583L564.5208083446394,367.1272175929404L560.0996806297148,360.1526047304036L561.0834299996393,355.84504120870565L538.5778675508714,357.2054173950853L541.491292748607,345.1450589823654L544.799462096866,339.41382408698905Z"
      class="state"
      style="stroke: rgb(105, 105, 105); fill: rgb(255, 255, 255); stroke-width: 1;"></path>
    <path
      d="M617.4307535414707,350.81658080492895L619.5715401194018,354.6261904185757L650.7807998587263,352.4477633312672L653.8824822505044,348.4254175022783L660.095222783125,349.11450765422046L664.3242217368339,361.60268129229087L669.2440475340227,369.8831763282324L676.0217050752872,378.44540243416577L676.4045959138392,383.461834257411L685.8698881047552,400.2388492078342L687.07569952895,413.586154861481L686.2640403944715,421.389089666204L676.4139251392761,425.30561942203525L672.6660193161351,417.84150841684595L665.4953535646956,413.2984924725505L664.0235352944313,409.4871235920949L658.4300458301873,404.9672268427139L648.9089719930646,391.0721876422284L650.0112938831634,381.20174275211053L646.9840200597466,374.1263491028183L639.0715193356934,369.0194881820481L635.5655753190534,364.20697129721674L630.5397348202946,361.8097498094977L620.8786733458771,368.15909144033594L615.8713029740685,369.4449181533711L614.0548677677693,366.00451395186224L602.1583482563324,361.1996221461678L588.5173740214425,363.9206851309019L590.0051328369909,361.56157785052847L586.6421561885542,353.9706351244417Z"
      class="state"
      style="stroke: rgb(105, 105, 105); fill: rgb(122, 181, 173); stroke-width: 1;"></path>
    <path
      d="M622.9512349483131,270.778184829191L628.6195126576986,267.97464610443524L632.3940805764389,262.12358418415124L639.7257262978221,255.11397954329755L643.6083030506676,259.25282208727987L648.5279379812598,258.08288322355247L655.6232028073265,253.44790490563946L662.2252365158433,238.74320281373878L666.393197817403,238.21847476367736L674.0638182897986,225.98543581237652L673.9137547722985,221.7798261997167L680.8259699303776,222.52403559840252L688.190120718933,226.6534671088075L689.4386387863516,228.36914984531404L689.0112389033233,230.73360848888524L691.9427333646547,236.25174606724192L700.6277068239023,239.1189807888004L702.6763231318354,251.96686096859457L705.9751276744621,251.89009616143312L708.480357049118,256.751043325258L679.7305004434197,262.620068349196L660.2081595425102,266.0644873072007L644.903451872022,267.78302802381296Z"
      class="state"
      style="stroke: rgb(105, 105, 105); fill: rgb(171, 212, 199); stroke-width: 1;"></path>
    <path
      d="M644.903451872022,267.78302802381296L660.2081595425102,266.0644873072007L679.7305004434197,262.620068349196L708.480357049118,256.751043325258L708.9707968956308,261.5243045208535L712.3931948229838,269.920474037179L706.0799789888547,274.5808349767182L704.6412499817211,280.0586982484679L695.6513734991271,290.24513750444424L692.7756902383024,298.0278408376717L686.2716439981743,299.97822682423293L671.201985222724,288.9927652214542L658.5352351513026,290.9077021196161L654.9066183578593,286.7646695087961L639.5693706981706,288.3657367122763L632.1966798286597,292.2661402017027L618.6263696871181,294.23448405411636L618.6112948097224,290.86453901715214L623.7926506688909,285.4032347420306L626.9235306510078,284.8910332671163L639.9830168811455,274.67243042512854Z"
      class="state"
      style="stroke: rgb(105, 105, 105); fill: rgb(122, 181, 173); stroke-width: 1;"></path>
    <path
      d="M632.1966798286597,292.2661402017027L639.5693706981706,288.3657367122763L654.9066183578593,286.7646695087961L658.5352351513026,290.9077021196161L671.201985222724,288.9927652214542L686.2716439981743,299.97822682423293L681.0723260826873,306.17831142036755L679.0280793101781,313.3276292447709L669.202637186502,322.5041796906854L663.8182116900125,329.732813781662L656.7384745760999,322.86863212564697L651.9832759226997,316.22976304290995L640.4923721942973,306.1512249544327L635.5591011121162,299.0686868232897L630.2967244186228,297.12676300178305Z"
      class="state"
      style="stroke: rgb(105, 105, 105); fill: rgb(122, 181, 173); stroke-width: 1;"></path>
    <path
      d="M604.2133041147847,295.9163381438486L618.6263696871181,294.23448405411636L632.1966798286597,292.2661402017027L630.2967244186228,297.12676300178305L635.5591011121162,299.0686868232897L640.4923721942973,306.1512249544327L651.9832759226997,316.22976304290995L656.7384745760999,322.86863212564697L663.8182116900125,329.732813781662L659.6330816361319,343.37061449660274L660.095222783125,349.11450765422046L653.8824822505044,348.4254175022783L650.7807998587263,352.4477633312672L619.5715401194018,354.6261904185757L617.4307535414707,350.81658080492895L614.3921782094704,339.07828436880664L616.6231047184488,333.1238600917235L612.2123271227382,324.8814056275248Z"
      class="state"
      style="stroke: rgb(105, 105, 105); fill: rgb(122, 181, 173); stroke-width: 1;"></path>
    <path
      d="M574.7867726616252,298.64001843570287L604.2133041147847,295.9163381438486L612.2123271227382,324.8814056275248L616.6231047184488,333.1238600917235L614.3921782094704,339.07828436880664L617.4307535414707,350.81658080492895L586.6421561885542,353.9706351244417L590.0051328369909,361.56157785052847L588.5173740214425,363.9206851309019L583.5775784275238,362.5328004567384L577.8537328243377,363.5118575014443L575.1855962761393,342.3747094315043L575.5331617102619,322.66883335462205L576.0985948132045,299.9557531908193Z"
      class="state"
      style="stroke: rgb(105, 105, 105); fill: rgb(80, 150, 147); stroke-width: 1;"></path>
    <path
      d="M556.5932155671651,285.74962965672444L558.2149386225784,278.6231053348L558.8659061204371,278.5786080187188L559.6470306649636,278.5246806850748L574.740360898307,277.36836495017L576.7857611611956,275.2594405508368L602.874806760632,272.99689354080397L622.9512349483131,270.778184829191L644.903451872022,267.78302802381296L639.9830168811455,274.67243042512854L626.9235306510078,284.8910332671163L623.7926506688909,285.4032347420306L618.6112948097224,290.86453901715214L618.6263696871181,294.23448405411636L604.2133041147847,295.9163381438486L574.7867726616252,298.64001843570287L551.0195306563601,300.32952913255707L552.2406417183809,294.15947644269306L555.485366313197,291.0073036068862Z"
      class="state"
      style="stroke: rgb(105, 105, 105); fill: rgb(80, 150, 147); stroke-width: 1;"></path>
    <path
      d="M501.89477379957077,280.9485675738473L537.1101985748282,279.84724091925165L551.4433013757581,279.0620465726078L556.5932155671651,285.74962965672444L555.485366313197,291.0073036068862L552.2406417183809,294.15947644269306L551.0195306563601,300.32952913255707L548.4256890497999,308.6047161426382L544.3717960768183,313.1918352537908L541.5353603000866,321.1470433642139L542.7393623892954,328.7877110481824L509.2987029371573,329.7819861798519L509.14410661902116,322.2941976076862L503.9721053718354,321.17367012443833L504.10726884067503,296.4397003792594Z"
      class="state"
      style="stroke: rgb(105, 105, 105); fill: rgb(255, 255, 255); stroke-width: 1;"></path>
    <path
      d="M488.963020509871,223.40915872580672L514.0081013133142,223.13424954332072L531.3717356948254,221.99692183187233L534.7359783364536,225.19049734750172L535.7993458437459,234.2801397125926L542.910050540549,240.71771608559106L543.9254320783399,245.33731162689185L549.7872005623938,246.00762529298424L547.7941506790683,255.07854331873676L557.4622597243384,261.88641221702756L559.5005734244977,270.8021069274133L562.2801244407401,271.520409569918L559.6470306649636,278.5246806850748L558.8659061204371,278.5786080187188L558.2149386225784,278.6231053348L556.5932155671651,285.74962965672444L551.4433013757581,279.0620465726078L537.1101985748282,279.84724091925165L501.89477379957077,280.9485675738473L501.7925786716078,273.9457731741128L501.3467036881131,243.39274291097172L496.011374032448,238.17889757140858L498.47079029562803,234.39796262208836L493.83547762976133,231.70286174383727Z"
      class="state"
      style="stroke: rgb(105, 105, 105); fill: rgb(122, 181, 173); stroke-width: 1;"></path>
    <path
      d="M422.35233837714657,229.58526078482691L446.5759846936601,230.83778689276812L475.29938081013154,231.66776040336777L493.83547762976133,231.70286174383727L498.47079029562803,234.39796262208836L496.011374032448,238.17889757140858L501.3467036881131,243.39274291097172L501.7925786716078,273.9457731741128L472.1077435421941,273.9592104868787L446.06507402303964,273.17785865392347L419.780743918354,271.9366869765171L421.4061275032969,246.4058230200011Z"
      class="state"
      style="stroke: rgb(105, 105, 105); fill: rgb(171, 212, 199); stroke-width: 1;"></path>
    <path
      d="M241.7968959058631,172.59335091230184L271.5606344333305,179.67510378344662L301.72724817719126,186.0675045861317L298.5159082732554,202.78470763882774L292.07404297862047,235.64484944014373L288.3371138894417,255.08514199962752L286.31996276919483,266.2728787792039L278.1783835863187,266.2281381353821L276.4810361861704,281.50780942160264L258.3827781047477,254.27988747076267L241.73750892899147,229.04553452701953L231.25740439732337,213.4397229215707Z"
      class="state"
      style="stroke: rgb(105, 105, 105); fill: rgb(80, 150, 147); stroke-width: 1;"></path>
    <path
      d="M200.040909139907,160.72092325343965L218.2762432040679,166.0006392704463L241.7968959058631,172.59335091230184L231.25740439732337,213.4397229215707L241.73750892899147,229.04553452701953L258.3827781047477,254.27988747076267L276.4810361861704,281.50780942160264L280.10148871967465,292.23628433894555L274.7306401197006,296.55459346772534L271.31392280785474,304.0316478988732L269.28527762862814,312.808919410258L241.24489683015366,309.42812509838313L239.45462719200634,297.60651992416433L230.0055249683935,285.18143758975447L222.9120613697342,281.8754020583844L220.04605166450438,277.29024342588684L210.0451193316095,274.1850982314016L208.5686467158779,271.9079523515519L210.5947930481188,264.78872988272104L205.4865522418766,255.22333347349036L201.67992438070064,242.3822907217383L204.44001848520202,238.30512656895678L199.40952468718643,231.29930509831695L203.4004916966747,228.104662476028L203.74600851798215,225.45954856483388L197.04358229124227,218.15085618386274L197.52810727772976,215.1197128115225L192.3003213793803,203.72661180583316L194.81406278092032,191.02295960177696L191.32579917908953,183.7029243780588L199.24569321814914,168.73818068467597Z"
      class="state"
      style="stroke: rgb(105, 105, 105); fill: rgb(171, 212, 199); stroke-width: 1;"></path>
    <path
      d="M269.28527762862814,312.808919410258L271.31392280785474,304.0316478988732L274.7306401197006,296.55459346772534L280.10148871967465,292.23628433894555L276.4810361861704,281.50780942160264L278.1783835863187,266.2281381353821L286.31996276919483,266.2728787792039L288.3371138894417,255.08514199962752L318.3293778920709,260.4003816491866L342.79765461193153,264.17840758173355L340.40854197740964,281.469335015384L335.8863043501553,314.1985088185375L331.9021183847661,343.0335957099085L308.03919267433,339.47625602876025L285.73051771803796,326.54494883206246L267.5936521322117,315.66711724831805Z"
      class="state"
      style="stroke: rgb(105, 105, 105); fill: rgb(171, 212, 199); stroke-width: 1;"></path>
    <path
      d="M301.72724817719126,186.0675045861317L332.1152334857838,191.30751619663522L329.8953066518051,205.21411290347532L350.52054306072625,208.28489221676807L345.14476346459526,246.26066838615634L342.79765461193153,264.17840758173355L318.3293778920709,260.4003816491866L288.3371138894417,255.08514199962752L292.07404297862047,235.64484944014373L298.5159082732554,202.78470763882774Z"
      class="state"
      style="stroke: rgb(105, 105, 105); fill: rgb(80, 150, 147); stroke-width: 1;"></path>
    <path
      d="M284.96059610642,125.30385665179256L285.0587654131406,119.1566421084417L292.98888258352156,84.42148901535438L301.9211080564314,86.3822654779085L298.963148471698,100.1989098658645L300.40979458283374,108.36326740197501L303.65919541698906,111.38826552031128L306.218014256106,117.93471583222242L311.33149950211975,121.7064923469369L306.687539444865,132.96104639370333L307.9718420956137,137.72030264692398L312.54294302089926,135.8389689908048L315.0271847306916,147.5667843102451L318.3394838910326,154.0123115583874L332.4962810576234,154.92925954371992L337.5944605436631,156.98323136308136L332.1152334857838,191.30751619663522L301.72724817719126,186.0675045861317L271.5606344333305,179.67510378344662L277.4003653620123,154.2524218806892L279.03010182172034,149.13801058748925L277.2553767709636,145.326531902096L288.0531601428805,131.44034154710937Z"
      class="state"
      style="stroke: rgb(105, 105, 105); fill: rgb(255, 255, 255); stroke-width: 1;"></path>
    <path
      d="M301.9211080564314,86.3822654779085L321.7688904700432,90.39359219421954L345.46357298298915,94.5656156334793L366.242733055798,97.67898649968652L394.23292026400924,101.07719866406626L411.8985610294673,102.75621052380109L410.61128074629784,119.22999364206828L408.31593416791435,144.95549256123718L407.0779370878797,158.16953593349945L385.42088604424737,156.07472757818846L362.79898590069547,153.24104564240918L338.63934363058274,149.7034947304552L337.5944605436631,156.98323136308136L332.4962810576234,154.92925954371992L318.3394838910326,154.0123115583874L315.0271847306916,147.5667843102451L312.54294302089926,135.8389689908048L307.9718420956137,137.72030264692398L306.687539444865,132.96104639370333L311.33149950211975,121.7064923469369L306.218014256106,117.93471583222242L303.65919541698906,111.38826552031128L300.40979458283374,108.36326740197501L298.963148471698,100.1989098658645Z"
      class="state"
      style="stroke: rgb(105, 105, 105); fill: rgb(255, 255, 255); stroke-width: 1;"></path>
    <path
      d="M407.0779370878797,158.16953593349945L404.82903617756506,186.0271970442252L402.44804685535695,214.0725514221109L381.5678940243205,212.0776119687605L350.52054306072625,208.28489221676807L329.8953066518051,205.21411290347532L332.1152334857838,191.30751619663522L337.5944605436631,156.98323136308136L338.63934363058274,149.7034947304552L362.79898590069547,153.24104564240918L385.42088604424737,156.07472757818846Z"
      class="state"
      style="stroke: rgb(105, 105, 105); fill: rgb(255, 255, 255); stroke-width: 1;"></path>
    <path
      d="M350.52054306072625,208.28489221676807L381.5678940243205,212.0776119687605L402.44804685535695,214.0725514221109L423.24325224433716,215.6183506797638L422.35233837714657,229.58526078482691L421.4061275032969,246.4058230200011L419.780743918354,271.9366869765171L409.18343629054186,271.10638717385575L391.08914615177605,269.71482468348586L366.7181693162022,267.20400630073595L342.79765461193153,264.17840758173355L345.14476346459526,246.26066838615634Z"
      class="state"
      style="stroke: rgb(105, 105, 105); fill: rgb(171, 212, 199); stroke-width: 1;"></path>
    <path
      d="M342.79765461193153,264.17840758173355L366.7181693162022,267.20400630073595L391.08914615177605,269.71482468348586L409.18343629054186,271.10638717385575L408.6602398993925,278.19214663746016L406.4455792399845,302.7452589074357L403.3084079101613,341.2814392078861L378.77822215644665,339.1836237050169L361.7198217346829,337.4038263247326L362.34716291786106,340.5226920555302L342.656376406424,338.1567586358199L341.8549254484383,344.3637250752447L331.9021183847661,343.0335957099085L335.8863043501553,314.1985088185375L340.40854197740964,281.469335015384Z"
      class="state"
      style="stroke: rgb(105, 105, 105); fill: rgb(80, 150, 147); stroke-width: 1;"></path>
  </g>
</svg>
